<svg width="29" height="24" viewBox="0 0 29 24" fill="none" xmlns="http://www.w3.org/2000/svg">
<path fill-rule="evenodd" clip-rule="evenodd" d="M8.12414 2.07559C10.0694 0.777498 12.3226 0.169238 14.5528 0.243483C16.783 0.316683 18.9898 1.06995 20.8451 2.49315C22.7322 3.93974 24.0415 5.92102 24.6775 8.09957C24.9784 8.10861 25.3292 8.14281 25.6524 8.23588C26.424 8.4572 27.0924 9.07415 27.5412 10.0457C27.9882 11.0171 28.1845 12.2971 27.9827 13.6206C27.7825 14.9399 27.2253 16.0271 26.528 16.7027C25.8288 17.3779 25.0296 17.6341 24.2542 17.4329L23.3012 17.1802C21.7827 19.4693 19.4507 21.1107 16.7791 21.7625V22.0654C16.7791 22.6737 16.291 23.1638 15.6825 23.1638H12.7079C12.0991 23.1638 11.6088 22.6737 11.6088 22.0654V21.4861C11.6088 20.8782 12.0991 20.3881 12.7079 20.3881H15.0671C18.6101 20.0559 21.6718 17.7156 22.9069 14.3369L23.4606 10.648C23.3134 8.00094 22.0386 5.47936 19.843 3.79647C16.6867 1.37425 12.3484 1.23273 9.03941 3.44232C6.56724 5.09455 5.0892 7.78133 4.92951 10.6354L5.72137 15.909C5.88486 16.9968 5.30571 17.1833 4.13764 17.4326C3.35309 17.5974 2.56332 17.3779 1.86387 16.7023C1.16651 16.0271 0.608958 14.9396 0.409166 13.6202C0.207975 12.2967 0.398707 11.0147 0.850946 10.0453C1.19963 9.30145 1.9751 8.45684 3.00615 8.16442C3.28231 8.08632 3.51488 8.07587 3.70909 8.09957C4.41238 5.69024 5.93928 3.53503 8.12414 2.07559ZM19.4599 11.1561C19.4581 10.368 18.8208 9.73075 18.0345 9.73075C17.2464 9.73075 16.6069 10.3683 16.6069 11.1561C16.6069 11.9421 17.2461 12.581 18.0345 12.581C18.8208 12.581 19.4581 11.9421 19.4599 11.1561ZM15.6209 11.1561C15.6209 10.368 14.9835 9.73075 14.1954 9.73075C13.4067 9.73075 12.7693 10.3683 12.7693 11.1561C12.7693 11.9421 13.4067 12.581 14.1954 12.581C14.9835 12.581 15.6209 11.9421 15.6209 11.1561ZM11.7832 11.1561C11.7832 10.368 11.1441 9.73075 10.3579 9.73075C9.56985 9.73075 8.93207 10.3683 8.93207 11.1561C8.93207 11.9421 9.56985 12.581 10.3579 12.581C11.1441 12.581 11.7832 11.9421 11.7832 11.1561ZM6.64579 11.1561C6.64579 6.86619 10.0147 3.60918 14.1954 3.60918C18.3775 3.60918 21.7445 6.86619 21.7445 11.1561C21.7445 15.448 18.3775 18.703 14.1954 18.703C13.0999 18.703 12.0633 18.4781 11.126 18.0713L9.15383 19.1711C8.55654 19.5037 8.0956 19.0568 8.24412 18.3924L8.69466 16.3735C7.42507 15.0374 6.64579 13.2165 6.64579 11.1561Z" fill="url(#paint0_linear_36_463)" fill-opacity="0.58"/>
<defs>
<linearGradient id="paint0_linear_36_463" x1="11.1422" y1="14.7877" x2="12.3522" y2="23.4221" gradientUnits="userSpaceOnUse">
<stop stop-color="#45FACD"/>
<stop offset="1" stop-color="#0E8164"/>
</linearGradient>
</defs>
</svg>
