<svg width="21" height="27" viewBox="0 0 21 27" fill="none" xmlns="http://www.w3.org/2000/svg">
<path d="M20.6047 15.6932C20.3002 11.7294 18.4548 9.24544 16.8267 7.05347C15.3191 5.02418 14.017 3.27182 14.017 0.686798C14.017 0.479156 13.9007 0.289375 13.7163 0.194225C13.5314 0.0984991 13.3092 0.114177 13.141 0.236373C10.6958 1.98606 8.65563 4.93505 7.94298 7.74873C7.44824 9.70767 7.38274 11.91 7.37359 13.3644C5.1155 12.8821 4.60398 9.50445 4.59858 9.46765C4.57314 9.29243 4.46605 9.13995 4.31038 9.0567C4.15305 8.9745 3.96805 8.96854 3.80857 9.04749C3.69012 9.10481 0.902084 10.5215 0.739868 16.1777C0.728501 16.3658 0.727982 16.5546 0.727982 16.7432C0.727982 22.2383 5.1993 26.7093 10.6948 26.7093C10.7023 26.7098 10.7104 26.7109 10.7169 26.7093C10.7191 26.7093 10.7212 26.7093 10.7239 26.7093C16.2059 26.6936 20.6615 22.2286 20.6615 16.7432C20.6615 16.467 20.6047 15.6932 20.6047 15.6932ZM10.6948 25.602C8.86274 25.602 7.37248 24.0145 7.37248 22.0631C7.37248 21.9967 7.37199 21.9296 7.37678 21.8474C7.39895 21.0245 7.55525 20.4627 7.72666 20.0891C8.04791 20.779 8.62216 21.4133 9.55488 21.4133C9.86095 21.4133 10.1086 21.1656 10.1086 20.8596C10.1086 20.0713 10.1249 19.1618 10.3211 18.341C10.4958 17.6132 10.9132 16.839 11.4421 16.2182C11.6773 17.0239 12.1359 17.676 12.5836 18.3124C13.2243 19.2228 13.8868 20.1642 14.0031 21.7695C14.0101 21.8647 14.0171 21.9604 14.0171 22.0631C14.017 24.0145 12.5267 25.602 10.6948 25.602Z" fill="url(#paint0_linear_36_156)" fill-opacity="0.58"/>
<defs>
<linearGradient id="paint0_linear_36_156" x1="8.5" y1="17" x2="10.6947" y2="26.7102" gradientUnits="userSpaceOnUse">
<stop stop-color="#45FACD"/>
<stop offset="1" stop-color="#0E8164"/>
</linearGradient>
</defs>
</svg>
